<svg xmlns="http://www.w3.org/2000/svg" viewBox="0 0 1200 900" width="1200" height="900" fill="none" role="img" aria-label="Orbit placeholder artwork">
  <defs>
    <linearGradient id="orbit-base" x1="0" y1="1" x2="1" y2="0">
      <stop offset="0%" stop-color="#08090b"/>
      <stop offset="100%" stop-color="#14161b"/>
    </linearGradient>
    <radialGradient id="orbit-glow" cx="62%" cy="34%" r="46%">
      <stop offset="0%" stop-color="#ffffff" stop-opacity="0.09"/>
      <stop offset="100%" stop-color="#ffffff" stop-opacity="0"/>
    </radialGradient>
  </defs>

  <rect width="1200" height="900" fill="url(#orbit-base)"/>
  <rect width="1200" height="900" fill="url(#orbit-glow)"/>

  <g transform="rotate(-18 620 430)">
    <g stroke="#ffffff" stroke-opacity="0.10" stroke-dasharray="2 9" fill="none">
      <ellipse cx="620" cy="430" rx="420" ry="150"/>
      <ellipse cx="620" cy="430" rx="330" ry="112"/>
      <ellipse cx="620" cy="430" rx="240" ry="80"/>
    </g>
    <ellipse cx="620" cy="430" rx="150" ry="50" stroke="#cbff4d" stroke-opacity="0.55" fill="none"/>
    <circle cx="1020" cy="430" r="7" fill="#ffffff" fill-opacity="0.85"/>
    <circle cx="290" cy="430" r="5" fill="#ffffff" fill-opacity="0.4"/>
    <circle cx="620" cy="510" r="4" fill="#cbff4d" fill-opacity="0.9"/>
  </g>

  <circle cx="620" cy="430" r="46" fill="#0e1013" stroke="#ffffff" stroke-opacity="0.12"/>
  <circle cx="620" cy="430" r="15" fill="#cbff4d" fill-opacity="0.85"/>

  <g stroke="#ffffff" stroke-opacity="0.06">
    <path d="M0 130h1200"/>
    <path d="M0 770h1200"/>
    <path d="M150 0v900"/>
    <path d="M1050 0v900"/>
  </g>

  <g fill="#ffffff" fill-opacity="0.16">
    <rect x="150" y="130" width="120" height="6" rx="3"/>
    <rect x="150" y="152" width="72" height="6" rx="3"/>
    <rect x="930" y="746" width="120" height="6" rx="3"/>
    <rect x="1008" y="768" width="42" height="6" rx="3"/>
  </g>

  <g stroke="#ffffff" stroke-opacity="0.09" fill="none">
    <path d="M150 700 l40 -46 l34 30 l52 -74 l38 44 l46 -60"/>
  </g>
</svg>
